<svg xmlns="http://www.w3.org/2000/svg" viewBox="0 0 1200 640" role="img" aria-labelledby="title desc">
  <title id="title">Large model interview series cover</title>
  <desc id="desc">A knowledge map for large model interview preparation.</desc>
  <defs>
    <linearGradient id="bg" x1="0" x2="1" y1="0" y2="1">
      <stop offset="0" stop-color="#eef2ff"/>
      <stop offset="0.55" stop-color="#f8fafc"/>
      <stop offset="1" stop-color="#dcfce7"/>
    </linearGradient>
    <linearGradient id="accent" x1="0" x2="1">
      <stop offset="0" stop-color="#2563eb"/>
      <stop offset="1" stop-color="#10b981"/>
    </linearGradient>
    <filter id="shadow" x="-20%" y="-20%" width="140%" height="140%">
      <feDropShadow dx="0" dy="18" stdDeviation="18" flood-color="#1e293b" flood-opacity="0.14"/>
    </filter>
  </defs>
  <rect width="1200" height="640" fill="url(#bg)"/>
  <g filter="url(#shadow)">
    <rect x="140" y="96" width="920" height="448" rx="36" fill="#fff" opacity="0.92"/>
    <circle cx="600" cy="320" r="86" fill="url(#accent)"/>
    <g fill="none" stroke="#93c5fd" stroke-width="10" stroke-linecap="round">
      <path d="M600 234V156M600 404v80M514 320H312M686 320h202M542 258 384 178M658 258l158-80M542 382 384 462M658 382l158 80"/>
    </g>
    <g fill="#eff6ff" stroke="#bfdbfe" stroke-width="4">
      <rect x="222" y="286" width="180" height="68" rx="20"/>
      <rect x="300" y="144" width="170" height="68" rx="20"/>
      <rect x="730" y="144" width="170" height="68" rx="20"/>
      <rect x="798" y="286" width="180" height="68" rx="20"/>
      <rect x="300" y="428" width="170" height="68" rx="20"/>
      <rect x="730" y="428" width="170" height="68" rx="20"/>
    </g>
    <g fill="#1e293b" font-family="Arial, sans-serif" font-weight="700" text-anchor="middle">
      <text x="600" y="332" font-size="30" fill="#fff">LLM</text>
      <text x="312" y="329" font-size="22">RAG</text>
      <text x="385" y="187" font-size="22">Prompt</text>
      <text x="815" y="187" font-size="22">Agent</text>
      <text x="888" y="329" font-size="22">MCP</text>
      <text x="385" y="471" font-size="22">LoRA</text>
      <text x="815" y="471" font-size="22">Skill</text>
    </g>
  </g>
  <text x="144" y="594" fill="#1e293b" font-family="Arial, sans-serif" font-size="34" font-weight="700">大模型八股文</text>
</svg>
