<svg xmlns="http://www.w3.org/2000/svg" viewBox="0 0 800 400" width="100%" height="100%">
  <defs>
    <linearGradient id="bg" x1="0%" y1="0%" x2="100%" y2="100%">
      <stop offset="0%" stop-color="#f8f9fa" />
      <stop offset="100%" stop-color="#e9ecef" />
    </linearGradient>
    <pattern id="pattern" width="40" height="40" patternUnits="userSpaceOnUse">
      <circle cx="2" cy="2" r="1" fill="#cbd5e1" />
    </pattern>
  </defs>
  
  <rect width="100%" height="100%" fill="url(#bg)" />
  <rect width="100%" height="100%" fill="url(#pattern)" />
  
  <g transform="translate(400, 200)" text-anchor="middle" dominant-baseline="middle">
    <!-- Icon -->
    <path d="M-20,-30 L20,-30 C31,-30 40,-21 40,-10 L40,30 C40,41 31,50 20,50 L-20,50 C-31,50 -40,41 -40,30 L-40,-10 C-40,-21 -31,-30 -20,-30 Z" fill="none" stroke="#94a3b8" stroke-width="4" stroke-linecap="round" stroke-linejoin="round"/>
    <circle cx="-10" cy="-5" r="4" fill="#94a3b8" />
    <path d="M-40,20 L-10,-10 L10,10 L25,-5 L40,10" fill="none" stroke="#94a3b8" stroke-width="4" stroke-linecap="round" stroke-linejoin="round"/>
    
    <!-- Text -->
    <text y="80" font-family="system-ui, -apple-system, sans-serif" font-size="18" fill="#64748b" font-weight="500" letter-spacing="2">NO IMAGE AVAILABLE</text>
  </g>
</svg>