<svg xmlns="http://www.w3.org/2000/svg" viewBox="0 0 1200 640" role="img" aria-labelledby="title desc">
  <title id="title">Agricultural vision project cover</title>
  <desc id="desc">Crop leaves with detection boxes and coordinate attention visualization.</desc>
  <defs>
    <linearGradient id="bg" x1="0" x2="1" y1="0" y2="1">
      <stop offset="0" stop-color="#e7f8e8"/>
      <stop offset="0.55" stop-color="#fbfff2"/>
      <stop offset="1" stop-color="#d7f0ff"/>
    </linearGradient>
    <linearGradient id="leaf" x1="0" x2="1" y1="0" y2="1">
      <stop offset="0" stop-color="#2f9e44"/>
      <stop offset="1" stop-color="#82c91e"/>
    </linearGradient>
    <filter id="shadow" x="-20%" y="-20%" width="140%" height="140%">
      <feDropShadow dx="0" dy="18" stdDeviation="18" flood-color="#1f5b35" flood-opacity="0.14"/>
    </filter>
  </defs>
  <rect width="1200" height="640" fill="url(#bg)"/>
  <path d="M0 464c166-94 324-64 486-8s296 60 456-28c102-56 188-62 258-28v240H0z" fill="#dff5d8"/>
  <g filter="url(#shadow)">
    <rect x="150" y="104" width="900" height="432" rx="36" fill="#ffffff" opacity="0.88"/>
    <path d="M330 420C214 304 236 198 430 166c28 154 0 236-100 254z" fill="url(#leaf)"/>
    <path d="M544 450C416 320 470 184 700 176c-2 178-48 262-156 274z" fill="url(#leaf)" opacity="0.95"/>
    <path d="M790 418C682 300 736 210 950 190c-18 152-66 222-160 228z" fill="url(#leaf)" opacity="0.9"/>
    <path d="M310 394c60-74 88-140 120-228M526 426c72-92 122-164 174-250M776 392c72-78 116-138 174-202" stroke="#def7d5" stroke-width="8" stroke-linecap="round"/>
    <rect x="406" y="220" width="116" height="84" rx="10" fill="none" stroke="#ff4d4f" stroke-width="8"/>
    <rect x="710" y="270" width="142" height="96" rx="10" fill="none" stroke="#ffb703" stroke-width="8"/>
    <rect x="282" y="306" width="96" height="72" rx="10" fill="none" stroke="#2f80ed" stroke-width="8"/>
    <circle cx="464" cy="262" r="14" fill="#ff4d4f"/>
    <circle cx="782" cy="318" r="14" fill="#ffb703"/>
    <circle cx="330" cy="344" r="14" fill="#2f80ed"/>
    <path d="M220 176h760M220 464h760M220 176v288M980 176v288" stroke="#95d5b2" stroke-width="6" stroke-dasharray="18 18" opacity="0.65"/>
  </g>
  <text x="144" y="594" fill="#245333" font-family="Arial, sans-serif" font-size="34" font-weight="700">LIGHTWEIGHT CROP VISION</text>
</svg>
