<svg xmlns="http://www.w3.org/2000/svg" viewBox="0 0 1200 640" role="img" aria-labelledby="title desc">
  <title id="title">Personal blog project cover</title>
  <desc id="desc">A clean editorial workspace with article cards and a writing panel.</desc>
  <defs>
    <linearGradient id="bg" x1="0" x2="1" y1="0" y2="1">
      <stop offset="0" stop-color="#eaf6ff"/>
      <stop offset="0.52" stop-color="#f7fbff"/>
      <stop offset="1" stop-color="#dff7ea"/>
    </linearGradient>
    <linearGradient id="accent" x1="0" x2="1">
      <stop offset="0" stop-color="#2684ff"/>
      <stop offset="1" stop-color="#1fd18a"/>
    </linearGradient>
    <filter id="shadow" x="-20%" y="-20%" width="140%" height="140%">
      <feDropShadow dx="0" dy="18" stdDeviation="18" flood-color="#1d3557" flood-opacity="0.16"/>
    </filter>
  </defs>
  <rect width="1200" height="640" fill="url(#bg)"/>
  <circle cx="1080" cy="120" r="150" fill="#b7e4ff" opacity="0.5"/>
  <circle cx="150" cy="540" r="190" fill="#b8f4d6" opacity="0.55"/>
  <g filter="url(#shadow)">
    <rect x="140" y="104" width="920" height="432" rx="34" fill="#ffffff" opacity="0.88"/>
    <rect x="140" y="104" width="920" height="72" rx="34" fill="#f6fbff"/>
    <circle cx="190" cy="140" r="10" fill="#ff7a90"/>
    <circle cx="224" cy="140" r="10" fill="#ffd166"/>
    <circle cx="258" cy="140" r="10" fill="#4dd599"/>
    <rect x="190" y="220" width="270" height="250" rx="24" fill="#eef6ff"/>
    <rect x="218" y="248" width="170" height="18" rx="9" fill="#2b5c7f"/>
    <rect x="218" y="292" width="210" height="12" rx="6" fill="#88a9bd"/>
    <rect x="218" y="322" width="180" height="12" rx="6" fill="#a7bdcb"/>
    <rect x="218" y="386" width="104" height="34" rx="17" fill="url(#accent)"/>
    <rect x="510" y="220" width="200" height="250" rx="24" fill="#f4fbf7"/>
    <path d="M548 278h124M548 318h92M548 358h128M548 398h74" stroke="#4e8f6f" stroke-width="16" stroke-linecap="round"/>
    <rect x="760" y="220" width="250" height="250" rx="24" fill="#fff7eb"/>
    <path d="M810 408c54-104 98-104 152 0" fill="none" stroke="#f4a261" stroke-width="18" stroke-linecap="round"/>
    <circle cx="862" cy="304" r="34" fill="#ffd7a3"/>
    <circle cx="928" cy="304" r="34" fill="#ffc67e"/>
  </g>
  <text x="144" y="594" fill="#1f2937" font-family="Arial, sans-serif" font-size="34" font-weight="700">BLOG SYSTEM</text>
</svg>
